<svg width="21" height="20" viewBox="0 0 21 20" fill="none" xmlns="http://www.w3.org/2000/svg">
<path d="M10.1601 12.4792C10.0489 12.4792 9.94478 12.4618 9.84755 12.4271C9.75033 12.3924 9.66005 12.3333 9.57672 12.25L5.74339 8.41667C5.59061 8.26389 5.51422 8.06945 5.51422 7.83334C5.51422 7.59722 5.59061 7.40278 5.74339 7.25C5.89617 7.09722 6.09061 7.02084 6.32672 7.02084C6.56283 7.02084 6.75728 7.09722 6.91005 7.25L10.1601 10.5L13.4101 7.25C13.5628 7.09722 13.7573 7.02084 13.9934 7.02084C14.2295 7.02084 14.4239 7.09722 14.5767 7.25C14.7295 7.40278 14.8059 7.59722 14.8059 7.83334C14.8059 8.06945 14.7295 8.26389 14.5767 8.41667L10.7434 12.25C10.6601 12.3333 10.5698 12.3924 10.4726 12.4271C10.3753 12.4618 10.2712 12.4792 10.1601 12.4792Z" fill="#333333"/>
</svg>
