<svg width="21" height="14" viewBox="0 0 21 14" fill="none" xmlns="http://www.w3.org/2000/svg">
<path d="M19.587 1C19.815 1 20 1.185 20 1.413V12.978C20 13.0875 19.9565 13.1926 19.879 13.27C19.8016 13.3475 19.6965 13.391 19.587 13.391H1.413C1.30347 13.391 1.19842 13.3475 1.12096 13.27C1.04351 13.1926 1 13.0875 1 12.978V1.413C1 1.185 1.185 1 1.413 1H19.587ZM19.174 1.826H1.826V12.566H19.174V1.826Z" fill="#333333" stroke="#333333"/>
<path d="M11.281 5.13002H16.435C16.638 5.13002 16.803 4.94602 16.803 4.71702C16.803 4.48902 16.638 4.30402 16.435 4.30402H11.28C11.077 4.30402 10.912 4.48902 10.912 4.71702C10.912 4.94602 11.077 5.13002 11.28 5.13002H11.281ZM11.281 7.60902H16.435C16.638 7.60902 16.803 7.42402 16.803 7.19602C16.803 6.96802 16.638 6.78302 16.435 6.78302H11.28C11.077 6.78302 10.912 6.96802 10.912 7.19602C10.912 7.42402 11.077 7.60902 11.28 7.60902H11.281ZM11.281 10.087H16.435C16.638 10.087 16.803 9.90202 16.803 9.67402C16.803 9.44602 16.638 9.26102 16.435 9.26102H11.28C11.077 9.26102 10.912 9.44602 10.912 9.67402C10.912 9.90202 11.077 10.087 11.28 10.087H11.281Z" fill="#333333" stroke="#333333" stroke-width="0.5"/>
<path d="M7.30798 6.45803H8.49798C8.58798 6.45803 8.67431 6.49371 8.73804 6.55726C8.80177 6.6208 8.83771 6.70702 8.83798 6.79703V7.64103C8.83798 7.7312 8.80215 7.81768 8.73839 7.88144C8.67463 7.9452 8.58815 7.98103 8.49798 7.98103H7.30798V9.21103C7.30771 9.30103 7.27177 9.38725 7.20804 9.4508C7.14431 9.51434 7.05798 9.55003 6.96798 9.55003H5.95798C5.86815 9.5495 5.78218 9.51344 5.71885 9.44974C5.65552 9.38603 5.61997 9.29985 5.61998 9.21003V7.98003H4.42698C4.33697 7.98003 4.25065 7.94434 4.18691 7.8808C4.12318 7.81725 4.08724 7.73103 4.08698 7.64103V6.79703C4.08698 6.70685 4.1228 6.62037 4.18656 6.55661C4.25032 6.49285 4.3368 6.45703 4.42698 6.45703H5.61998V5.14003C5.62024 5.0502 5.65604 4.96413 5.71956 4.90061C5.78307 4.83709 5.86915 4.80129 5.95898 4.80103H6.96898C7.05898 4.80129 7.1452 4.83723 7.20875 4.90096C7.27229 4.9647 7.30798 5.05102 7.30798 5.14103V6.45803Z" fill="#333333"/>
</svg>
