<svg width="20" height="23" viewBox="0 0 20 23" fill="none" xmlns="http://www.w3.org/2000/svg">
<path d="M20 10.058C19.9875 8.14995 19.4294 6.28534 18.3915 4.68423C17.3537 3.08312 15.8794 1.81235 14.1428 1.02193C12.4061 0.231508 10.4796 -0.0455734 8.59062 0.223392C6.70161 0.492358 4.92898 1.29614 3.48197 2.53987C2.03496 3.78359 0.973976 5.41534 0.424255 7.24249C-0.125466 9.06965 -0.140975 11.0159 0.37956 12.8516C0.900094 14.6873 1.93494 16.3358 3.36195 17.6024C4.78895 18.869 6.54855 19.7009 8.43303 20V12.967H5.93303V10.058H8.43303V7.84197C8.43303 5.34197 9.93303 3.93297 12.217 3.93297C12.965 3.95697 13.712 4.03497 14.45 4.16697V6.66697H13.192C12.9764 6.63962 12.7574 6.6611 12.5512 6.72981C12.345 6.79852 12.1569 6.91271 12.0007 7.06394C11.8446 7.21516 11.7245 7.39955 11.6493 7.60346C11.574 7.80737 11.5456 8.02558 11.566 8.24197V10.125H14.333L13.892 13.033H11.567V20C13.925 19.6156 16.0689 18.4038 17.6143 16.5818C19.1597 14.7599 20.0055 12.447 20 10.058Z" fill="white" fill-opacity="0.6"/>
</svg>
