<svg width="99" height="40" viewBox="0 0 99 40" fill="none" xmlns="http://www.w3.org/2000/svg">
<circle cx="20" cy="20" r="20" fill="#58BBEE"/>
<path d="M20.5 25.625C22.3529 25.625 23.8585 29 25.0938 29C27.5643 29 31 20 31 14.9375C31 12.779 28.8768 11 26.4062 11C23.9357 11 22.3529 13.5714 20.5 13.5714C18.6471 13.5714 17.0643 11 14.5938 11C12.1232 11 10 12.6875 10 14.9375C10 20 13.4357 29 15.9062 29C17.1415 29 18.6471 25.625 20.5 25.625Z" fill="white"/>
<circle cx="49" cy="20" r="20" fill="#D98584"/>
<path d="M42.2 13H55C56.1046 13 57 13.8954 57 15V25C57 26.1046 56.1046 27 55 27H42.2C41.0954 27 40.2 26.1046 40.2 25V15C40.2 13.8954 41.0954 13 42.2 13Z" stroke="white" stroke-width="2" stroke-linecap="round" stroke-linejoin="round"/>
<path d="M40.2 17.2L38.6325 16.6775C37.3374 16.2458 36 17.2097 36 18.5748V18.9296C36 19.5983 36.3342 20.2228 36.8906 20.5937L40.2 22.8" stroke="white" stroke-width="2" stroke-linecap="round" stroke-linejoin="round"/>
<path d="M57 17.2L58.5676 16.6775C59.8626 16.2458 61.2 17.2097 61.2 18.5748V18.9296C61.2 19.5983 60.8658 20.2228 60.3094 20.5937L57 22.8" stroke="white" stroke-width="2" stroke-linecap="round" stroke-linejoin="round"/>
<path d="M48.6 17.2L48.6 22.8" stroke="white" stroke-width="2" stroke-linecap="round" stroke-linejoin="round"/>
<path d="M51.4 20L45.8 20" stroke="white" stroke-width="2" stroke-linecap="round" stroke-linejoin="round"/>
<circle cx="79" cy="20" r="20" fill="#ECC46B"/>
<path d="M87.1716 13.348L86.652 12.8284C85.0899 11.2663 82.5572 11.2663 80.9951 12.8284L71.8284 21.9951C70.2663 23.5572 70.2663 26.0899 71.8284 27.652L72.348 28.1716C73.9101 29.7337 76.4428 29.7337 78.0049 28.1716L87.1716 19.0049C88.7337 17.4428 88.7337 14.9101 87.1716 13.348Z" stroke="white" stroke-width="2" stroke-linecap="round" stroke-linejoin="round"/>
<path d="M83 24V24C79.8545 22.6519 77.3481 20.1455 76 17V17" stroke="white" stroke-width="2" stroke-linecap="round" stroke-linejoin="round"/>
</svg>
