<svg width="20" height="23" viewBox="0 0 20 23" fill="none" xmlns="http://www.w3.org/2000/svg">
<path d="M10 0C7.286 0 6.945 0.012 5.879 0.06C4.813 0.11 4.086 0.278 3.45 0.525C2.78314 0.775987 2.17909 1.16947 1.68 1.678C1.17081 2.17772 0.776661 2.78242 0.525 3.45C0.277 4.085 0.108 4.812 0.06 5.877C0.013 6.943 0 7.284 0 10C0 12.716 0.012 13.056 0.06 14.122C0.11 15.187 0.278 15.914 0.525 16.549C0.775816 17.2165 1.16931 17.8213 1.678 18.321C2.17726 18.83 2.78168 19.2239 3.449 19.475C4.085 19.722 4.812 19.891 5.877 19.94C6.943 19.988 7.284 20 10 20C12.716 20 13.056 19.988 14.122 19.94C15.187 19.891 15.914 19.722 16.551 19.475C17.218 19.2239 17.8221 18.83 18.321 18.321C18.8297 17.8215 19.2235 17.2171 19.475 16.55C19.721 15.914 19.89 15.187 19.94 14.123C19.987 13.056 20 12.716 20 10C20 7.284 19.988 6.943 19.94 5.877C19.89 4.812 19.72 4.085 19.475 3.45C19.2237 2.7825 18.8299 2.1778 18.321 1.678C17.8218 1.1691 17.2174 0.775569 16.55 0.525C15.912 0.278 15.185 0.109 14.12 0.06C13.055 0.012 12.716 0 9.999 0H10ZM9.104 1.802H10C12.67 1.802 12.986 1.812 14.04 1.86C15.016 1.904 15.545 2.067 15.897 2.204C16.364 2.385 16.697 2.602 17.047 2.952C17.397 3.302 17.613 3.635 17.795 4.102C17.932 4.454 18.095 4.983 18.139 5.958C18.187 7.012 18.198 7.329 18.198 9.998C18.198 12.667 18.188 12.983 18.139 14.038C18.095 15.012 17.932 15.542 17.795 15.894C17.6348 16.3282 17.3792 16.7208 17.047 17.043C16.7245 17.375 16.3314 17.6303 15.897 17.79C15.545 17.928 15.016 18.09 14.041 18.135C12.987 18.183 12.67 18.193 10 18.193C7.33 18.193 7.013 18.183 5.96 18.135C4.984 18.09 4.455 17.927 4.102 17.79C3.66758 17.6297 3.27462 17.3741 2.952 17.042C2.61991 16.7193 2.36432 16.3264 2.204 15.892C2.067 15.541 1.904 15.012 1.859 14.037C1.812 12.982 1.802 12.666 1.802 9.995C1.802 7.325 1.812 7.01 1.859 5.955C1.904 4.981 2.067 4.452 2.204 4.099C2.385 3.632 2.602 3.299 2.952 2.949C3.302 2.599 3.635 2.382 4.102 2.201C4.455 2.063 4.984 1.901 5.959 1.856C6.882 1.814 7.239 1.802 9.103 1.8V1.802H9.104ZM15.339 3.462C15.1813 3.462 15.0252 3.49305 14.8796 3.55338C14.7339 3.61371 14.6016 3.70214 14.4901 3.81362C14.3786 3.92509 14.2902 4.05744 14.2299 4.20309C14.1696 4.34874 14.1385 4.50485 14.1385 4.6625C14.1385 4.82015 14.1696 4.97626 14.2299 5.12191C14.2902 5.26756 14.3786 5.3999 14.4901 5.51138C14.6016 5.62286 14.7339 5.71129 14.8796 5.77162C15.0252 5.83195 15.1813 5.863 15.339 5.863C15.6573 5.863 15.9625 5.73657 16.1875 5.51153C16.4126 5.28648 16.539 4.98126 16.539 4.663C16.539 4.34474 16.4126 4.03952 16.1875 3.81447C15.9625 3.58943 15.6573 3.463 15.339 3.463V3.462ZM10 4.866C9.31957 4.8565 8.64403 4.98232 8.01264 5.23615C7.38125 5.48997 6.80659 5.86673 6.32206 6.34455C5.83753 6.82237 5.45278 7.39171 5.19018 8.0195C4.92757 8.64728 4.79234 9.321 4.79234 10.0015C4.79234 10.682 4.92757 11.3557 5.19018 11.9835C5.45278 12.6113 5.83753 13.1806 6.32206 13.6585C6.80659 14.1363 7.38125 14.513 8.01264 14.7669C8.64403 15.0207 9.31957 15.1465 10 15.137C11.3496 15.1182 12.6376 14.5688 13.5853 13.6078C14.533 12.6467 15.0643 11.3512 15.0643 10.0015C15.0643 8.65176 14.533 7.35627 13.5853 6.39523C12.6376 5.43418 11.3496 4.88483 10 4.866ZM10 6.668C10.884 6.668 11.7317 7.01915 12.3568 7.64421C12.9818 8.26927 13.333 9.11703 13.333 10.001C13.333 10.885 12.9818 11.7327 12.3568 12.3578C11.7317 12.9828 10.884 13.334 10 13.334C9.11603 13.334 8.26827 12.9828 7.64321 12.3578C7.01815 11.7327 6.667 10.885 6.667 10.001C6.667 9.11703 7.01815 8.26927 7.64321 7.64421C8.26827 7.01915 9.11603 6.668 10 6.668Z" fill="white" fill-opacity="0.6"/>
</svg>
