<svg width="20" height="23" viewBox="0 0 20 23" fill="none" xmlns="http://www.w3.org/2000/svg">
<path d="M15.833 0H4.167C3.06184 0 2.00195 0.439022 1.22049 1.22049C0.439022 2.00195 0 3.06184 0 4.167L0 15.833C0 18.134 1.866 20 4.167 20H15.833C16.9382 20 17.9981 19.561 18.7795 18.7795C19.561 17.9981 20 16.9382 20 15.833V4.167C20 1.866 18.135 0 15.833 0ZM6.667 15.833H4.167V6.667H6.667V15.833ZM5.417 5.61C5.02863 5.60841 4.65678 5.45268 4.3832 5.17703C4.10961 4.90138 3.95667 4.52837 3.958 4.14C3.958 3.328 4.612 2.67 5.417 2.67C6.222 2.67 6.875 3.328 6.875 4.14C6.875 4.952 6.223 5.61 5.417 5.61ZM16.667 15.833H14.167V11.163C14.167 8.357 10.833 8.569 10.833 11.163V15.833H8.333V6.667H10.833V8.137C11.997 5.982 16.667 5.823 16.667 10.201V15.833Z" fill="white" fill-opacity="0.6"/>
</svg>
