<svg width="25" height="26" viewBox="0 0 25 26" fill="none" xmlns="http://www.w3.org/2000/svg">
<path d="M24.5616 23.3948L17.5066 16.0535C18.9438 14.3643 19.8583 12.1554 19.8583 9.75166C19.8583 4.35939 15.4816 0.0065918 10.0598 0.0065918C4.63791 0.0065918 0.26123 4.35939 0.26123 9.75166C0.26123 15.1439 4.63791 19.4967 10.0598 19.4967C11.6929 19.4967 13.1953 19.1069 14.5018 18.3923L21.818 25.9934L24.5616 23.3948ZM2.6782 9.75166C2.6782 5.7237 6.0097 2.41037 10.0598 2.41037C14.1098 2.41037 17.4413 5.65873 17.4413 9.75166C17.4413 13.8446 14.1098 17.0929 10.0598 17.0929C6.0097 17.0929 2.6782 13.7796 2.6782 9.75166Z" fill="white"/>
</svg>
