<svg width="56" height="56" viewBox="0 0 56 56" fill="none" xmlns="http://www.w3.org/2000/svg">
<path d="M51.2493 23.2757L18.3208 2.435C16.196 1.09018 13.3833 1.72251 12.0385 3.84732L7.89963 10.3868C6.55482 12.5116 7.18714 15.3243 9.31195 16.6691L42.2405 37.5098C44.3653 38.8546 47.178 38.2223 48.5228 36.0974L52.6617 29.558C54.0065 27.4332 53.3741 24.6205 51.2493 23.2757Z" fill="#14967F"/>
<path d="M43.5652 36.1866L4.52167 40.8008C2.02442 41.096 0.239248 43.3596 0.534375 45.8569L1.17392 51.2684C1.46904 53.7657 3.73271 55.5509 6.22996 55.2557L45.2735 50.6415C47.7707 50.3464 49.5559 48.0827 49.2608 45.5855L48.6212 40.1739C48.3261 37.6767 46.0624 35.8915 43.5652 36.1866Z" fill="#14967F"/>
<path fill-rule="evenodd" clip-rule="evenodd" d="M7.58521 20.9664C9.7636 22.2238 12.6491 21.3001 14.0319 18.9042C15.4147 16.5073 14.7694 13.5481 12.591 12.2906C10.4126 11.0341 7.52621 11.9578 6.14432 14.3538C4.7615 16.7497 5.40682 19.7099 7.58521 20.9664ZM15.4737 25.5177C17.6512 26.7742 20.5375 25.8505 21.9194 23.4545C23.3023 21.0586 22.6569 18.0984 20.4785 16.8419C18.3011 15.5854 15.4138 16.5082 14.0319 18.9042C12.6491 21.301 13.2953 24.2612 15.4737 25.5177ZM29.7618 28.0842C28.3624 30.4202 25.5166 31.3098 23.3622 30.0671C21.1847 28.8106 20.5394 25.8496 21.9213 23.4536C23.3041 21.0577 26.1896 20.1349 28.368 21.3914C30.5224 22.6341 31.1769 25.5435 29.854 27.9247C31.2534 25.5887 34.0993 24.7 36.2537 25.9427C38.4311 27.1983 39.0765 30.1593 37.6946 32.5553C37.5473 32.8104 37.3799 33.0533 37.194 33.2817C37.6817 34.0008 38.0025 34.8673 38.0873 35.8178C38.3334 38.5724 36.5017 40.9877 33.9978 41.2108C31.4931 41.4348 29.2631 39.3827 29.0179 36.6272C28.9047 35.4493 29.1896 34.2675 29.8273 33.2707C28.8833 31.8242 28.8003 29.8155 29.7618 28.0842ZM19.8646 37.4366C20.1098 40.1921 18.279 42.6065 15.7742 42.8296C13.2695 43.0536 11.0404 41.0015 10.7943 38.246C10.5481 35.4914 12.3799 33.0771 14.8837 32.853C17.3884 32.6299 19.6194 34.682 19.8646 37.4366ZM6.78871 44.4641C9.29344 44.24 11.1243 41.8257 10.8781 39.0711C10.6329 36.3156 8.40291 34.2635 5.89817 34.4875C3.39344 34.7106 1.5626 37.125 1.80874 39.8805C2.05488 42.6351 4.28397 44.6872 6.78871 44.4641ZM29.017 36.6281C29.2631 39.3827 27.4313 41.7971 24.9275 42.0211C22.4228 42.2442 20.1928 40.1921 19.9475 37.4366C19.7014 34.682 21.5332 32.2667 24.037 32.0436C26.5417 31.8205 28.7717 33.8726 29.0179 36.6272L29.017 36.6281Z" fill="#FDFAEE"/>
</svg>
